<?xml version="1.0" encoding="utf-8"?>
<!-- Generator: Adobe Illustrator 19.1.0, SVG Export Plug-In . SVG Version: 6.00 Build 0)  -->
<svg version="1.1" id="Layer_1" xmlns="http://www.w3.org/2000/svg" xmlns:xlink="http://www.w3.org/1999/xlink" x="0px" y="0px"
	 viewBox="0 0 3348.7 924.4" style="enable-background:new 0 0 3348.7 924.4;" xml:space="preserve">
<g>
	<path d="M1191.7,218.3c142.4,0,240.5,94.8,240.5,237.6c0,142.4-101.5,237.6-247.7,237.6h-137.1v218.9H902.2V218.3H1191.7z
		 M1047.4,580h105.3c83.2,0,131.8-44.3,131.8-123.6c0-78.9-48.1-123.1-131.3-123.1h-105.8V580z"/>
	<path d="M1966.7,912.4h-448.8V218.3h145.3v573.9h303.5V912.4z"/>
	<path d="M2176.4,652.7c0,89,52.4,147.2,145.8,147.2c92.8,0,145.3-58.2,145.3-147.2V218.3h145.3v448.8c0,153-113,257.4-290.5,257.4
		c-178,0-291-104.4-291-257.4V218.3h145.3V652.7z"/>
	<path d="M3040.8,924.4c-207.3,0-334.3-135.7-334.3-361.3c0-222.2,127-356.9,331-356.9c162.1,0,284.3,95.7,305,236.2h-145.8
		c-21.2-72.6-80.3-115.9-158.7-115.9c-114.5,0-183.3,87.1-183.3,234.7c0,150.6,73.1,242.4,188.6,242.4
		c94.8,0,160.7-58.2,163.6-144.3l0.5-11.1h-151V542.5h292.5v78.4C3348.7,810,3234.2,924.4,3040.8,924.4z"/>
</g>
<g id="apple-icon">
	<g id="g186" transform="matrix(54.85033,0,0,-54.85033,-1411.313,6454.729)">
		<path id="path188" d="M36.9,109c0,2.1,1.7,3.1,1.8,3.1c-1,1.4-2.5,1.6-3,1.6c-1.3,0.1-2.5-0.8-3.1-0.8s-1.6,0.7-2.7,0.7
			c-1.4,0-2.7-0.8-3.4-2.1c-1.4-2.5-0.4-6.2,1-8.3c0.7-1,1.5-2.1,2.6-2.1c1,0,1.4,0.7,2.7,0.7c1.3,0,1.6-0.7,2.7-0.7
			c1.1,0,1.8,1,2.5,2c0.8,1.2,1.1,2.3,1.1,2.3C39.1,105.6,36.9,106.5,36.9,109"/>
	</g>
	<path id="path190" d="M498.9,143.8c31.4-38.1,52.7-91,46.8-143.8c-45.3,1.8-100.1,30.2-132.6,68.3c-29.1,33.7-54.6,87.6-47.7,139.2
		C415.9,211.4,467.5,181.8,498.9,143.8"/>
</g>
</svg>
